<?xml version="1.0" encoding="utf-8"?>
<!-- Generator: Adobe Illustrator 21.1.0, SVG Export Plug-In . SVG Version: 6.00 Build 0)  -->
<svg version="1.1" id="svg4171" xmlns:svg="http://www.w3.org/2000/svg"
	 xmlns="http://www.w3.org/2000/svg" xmlns:xlink="http://www.w3.org/1999/xlink" x="0px" y="0px" viewBox="0 0 86.2 228"
	 style="enable-background:new 0 0 86.2 228;" xml:space="preserve">
<style type="text/css">
	.st0{fill:#B89B5C;stroke:#000000;stroke-width:1.5;stroke-linecap:round;}
	.st1{fill:#7DF6A7;stroke:#000000;stroke-width:1.5;stroke-linecap:round;}
	.st2{fill:#D67DF6;stroke:#000000;stroke-width:1.5;stroke-linecap:round;}
	.st3{fill:#F67DA2;stroke:#000000;stroke-width:1.5;stroke-linecap:round;stroke-linejoin:round;}
	.st4{fill:#F6D07D;stroke:#000000;stroke-width:1.5;stroke-linecap:round;}
	.st5{fill:#7D88F6;stroke:#000000;stroke-width:1.5;stroke-linecap:round;}
</style>
<g id="layer1" transform="translate(-254.92897,-152.83803)">
	<g id="g5011" transform="translate(-237.2301,-187.1353)">
		<path id="path5000" class="st0" d="M534.4,354.7c0,0,4.4,1.7,13.4,7.5s16.5,12.5,16.6,12.6c1.8-2,2.8-3.2,4.3-5.5
			c4.4-6.8-21-20.4-21.3-20.4L534.4,354.7z"/>
		<path id="path4703" class="st1" d="M560.9,365.6h0.1c2.2-3,0.2-4.2-1.5-5.2l-25.7-1c1.9,1.3,0-0.2,0-0.2c1.9,1.6,3,1.4,0.7,5.2
			l0.1,0L560.9,365.6"/>
		<path id="path4584" class="st0" d="M532,449.9c0,0-9.7-2.7-17.7-8.2c-8-5.5-13.8-13.2-13.9-13.4c-0.3,0.2-2.7,5.8-3.4,8.4
			c-2.1,8.6,19,20,19,20.2l16.1-6.8"/>
		<path id="path4715" class="st2" d="M547.9,385.6l-10.5,5l0.1,0l-6.7,0l0,0c-3.1-3.1-0.1-3.5,1-5.1c0,0-1.1,1.5,0,0L547.9,385.6z"
			/>
		<path id="path4707" class="st3" d="M560,378.1l5.4-4.5l-31.8-0.6l0.1,0v4.4v0L560,378.1z"/>
		<path id="path4948" class="st0" d="M531.7,392.9c0,0-9.7-2.7-17.7-8.2c-8-5.5-13.8-13.2-13.9-13.4c-0.3,0.2-2.7,5.8-3.4,8.4
			c-2.1,8.6,19,20,19,20.2l16.1-6.8"/>
		<path id="path5002" class="st4" d="M521.5,340.9c-8.7,1.9-24.5,13.3-27.1,20.7c-2.2,8.6-1.8,15.2,0.6,21.2
			c12.6,14.1,13.8,12.5,20.7,17.2c0-0.1-21.4-10.7-19-20.2c3.3-12.6,13.7-21.6,28.5-26.9L521.5,340.9z"/>
		<path id="path2898" class="st4" d="M547.5,348.9c0,0,25.3,13.4,21.2,20.4c-12,20.5-65.8,29.1-74,49.2c-2.2,8.6-1.8,15.2,0.6,21.2
			c12.6,14.1,13.8,12.5,20.7,17.2c0-0.1-21.4-10.7-19-20.2c8-31.2,44.1-23.5,75.1-53.3c2.1-3.4,2.5-9,0.5-16.8
			C572.7,362.4,557.8,356,547.5,348.9z"/>
		<path id="path2902" class="st2" d="M534.5,364.4c2.5-3.8,1.3-3.4-0.7-5c0,0,1.9,1.6,0,0l-19.3-1.5c0-0.2-1.5,0.8-3.4,2.1
			c-1.9,1.3-4.1,2.9-4,3.1L534.5,364.4z"/>
		<path id="path2910" class="st5" d="M533.6,373l0.1,4.4l-35.9-0.5l2.1-4.7L533.6,373z"/>
		<path id="path2914" class="st1" d="M530.8,390.4c-3.1-2.9,0.5-3.4,1.2-5c0,0-0.8,1.5,0,0l-26.5-0.1c-1,1.6,0,0,0,0
			c-1,1.5-1.4,3.3,0.8,5.2l0.1,0L530.8,390.4z"/>
	</g>
	<g id="g4954" transform="translate(-252.20223,-172.46899)">
		<path id="path4956" class="st0" d="M546.1,393c0,0,10.3,4.8,19.3,10.5s16.5,12.5,16.6,12.6c1.8-2,2.8-3.2,4.3-5.5
			c4.4-6.8-25.9-23.5-25.8-23.5L546.1,393z"/>
		<path id="path4958" class="st4" d="M560.4,387.1c0,0,30,16.5,25.9,23.5c-12,20.5-65.8,29.1-74,49.2c-2.2,8.6-1.8,15.2,0.6,21.2
			c12.6,14.1,13.8,12.5,20.7,17.2c0-0.1-21.4-10.7-19-20.2c8-31.2,44.1-23.5,75.1-53.3c2.1-3.4,2.5-9,0.5-16.8
			C590.3,403.7,570.6,394.2,560.4,387.1z"/>
		<path id="path4960" class="st2" d="M552,405.8c2.5-3.8,1.3-3.4-0.7-5c0,0,1.9,1.6,0,0l-19.3-1.5c0-0.2-1.5,0.8-3.4,2.1
			c-1.9,1.3-4.1,2.9-4,3.1L552,405.8z"/>
		<path id="path4962" class="st1" d="M548.4,431.7c-3.1-2.9,0.5-3.4,1.2-5c0,0-0.8,1.5,0,0l-26.5-0.1c-1,1.6,0,0,0,0
			c-1,1.5-1.4,3.3,0.8,5.2l0.1,0L548.4,431.7z"/>
		<path id="path4964" class="st5" d="M551.2,414.3l0.1,4.4l-35.9-0.5l2.1-4.7L551.2,414.3z"/>
		<path id="path4966" class="st1" d="M578.5,407h0.1c2.2-3,0.2-4.2-1.5-5.2l-25.7-1c1.9,1.3,0-0.2,0-0.2c1.9,1.6,3,1.4,0.7,5.2
			l0.1,0L578.5,407"/>
		<path id="path4968" class="st5" d="M558.8,394.7c1.4-1.6,0.9-4.1-0.7-5.4c0,0,1.6,1.2-0.2-0.1l-1.9-0.2l0,0l-11.7,4.8l0,0.1
			L558.8,394.7z"/>
		<path id="path4970" class="st0" d="M549.6,491.2c0,0-9.7-2.7-17.7-8.2s-13.8-13.2-13.9-13.4c-0.3,0.2-2.7,5.8-3.4,8.4
			c-2.1,8.6,19,20,19,20.2l16.1-6.8"/>
		<path id="path4972" class="st2" d="M565.5,426.9l-10.5,5l0.1,0l-6.7,0l0,0c-3.1-3.1-0.1-3.5,1-5.1c0,0-1.1,1.5,0,0L565.5,426.9z"
			/>
		<path id="path4974" class="st3" d="M577.6,419.4l5.4-4.5l-31.8-0.6l0.1,0v4.4v0L577.6,419.4z"/>
	</g>
	<path id="path4781" class="st0" d="M294.2,277c0,0,10.3,4.8,19.3,10.5s16.5,12.5,16.6,12.6c1.8-2,2.8-3.2,4.3-5.5
		c4.4-6.8-25.9-23.5-25.8-23.5L294.2,277z"/>
	<path id="path4783" class="st4" d="M308.4,271.1c0,0,30,16.5,25.9,23.5c-12,20.5-65.8,29.1-74,49.2c-2.2,8.6-1.8,15.2,0.6,21.2
		c12.6,14.1,5.5,8.1,12.4,12.8c0-0.1-13.1-6.3-10.6-15.8c8-31.2,44.1-23.5,75.1-53.3c2.1-3.4,2.5-9,0.5-16.8
		C338.4,287.7,318.7,278.2,308.4,271.1z"/>
	<path id="path4785" class="st2" d="M300.1,289.8c2.5-3.8,1.3-3.4-0.7-5c0,0,1.9,1.6,0,0l-19.3-1.5c0-0.2-1.5,0.8-3.4,2.1
		c-1.9,1.3-4.1,2.9-4,3.1L300.1,289.8z"/>
	<path id="path4787" class="st1" d="M296.5,315.7c-3.1-2.9,0.5-3.4,1.2-5c0,0-0.8,1.5,0,0l-26.5-0.1c-1,1.6,0,0,0,0
		c-1,1.5-1.4,3.3,0.8,5.2l0.1,0L296.5,315.7z"/>
	<path id="path4789" class="st5" d="M299.3,298.3l0.1,4.4l-35.9-0.5l2.1-4.7L299.3,298.3z"/>
	<path id="path4791" class="st1" d="M326.6,291h0.1c2.2-3,0.2-4.2-1.5-5.2l-25.7-1c1.9,1.3,0-0.2,0-0.2c1.9,1.6,3,1.4,0.7,5.2l0.1,0
		L326.6,291"/>
	<path id="path4793" class="st5" d="M306.9,278.7c1.4-1.6,0.9-4.1-0.7-5.4c0,0,1.6,1.2-0.2-0.1l-1.9-0.2l0,0l-11.7,4.8l0,0.1
		L306.9,278.7z"/>
	<path id="path4797" class="st2" d="M313.6,310.9l-10.5,5l0.1,0l-6.7,0l0,0c-3.1-3.1-0.1-3.5,1-5.1c0,0-1.1,1.5,0,0L313.6,310.9z"/>
	<path id="path4799" class="st3" d="M325.7,303.4l5.4-4.5l-31.8-0.6l0.1,0v4.4l0,0L325.7,303.4z"/>
	<path id="path4803" class="st0" d="M295,333.4c0,0,10.3,4.8,19.3,10.5c8.9,5.8,16.5,12.5,16.6,12.6c1.8-2,2.8-3.2,4.3-5.5
		c4.4-6.8-25.9-23.5-25.8-23.5L295,333.4z"/>
	<path id="path4807" class="st2" d="M300.9,346.2c2.5-3.8,1.3-3.4-0.7-5c0,0,1.9,1.6,0,0l-19.3-1.5c0-0.2-1.5,0.8-3.4,2.1
		c-1.9,1.3-4.1,2.9-4,3.1L300.9,346.2z"/>
	<path id="path4813" class="st1" d="M327.3,347.4h0.1c2.2-3,0.2-4.2-1.5-5.2l-25.7-1c1.9,1.3,0-0.2,0-0.2c1.9,1.6,3,1.4,0.7,5.2
		l0.1,0L327.3,347.4"/>
	<path id="path4815" class="st5" d="M307.6,335.2c1.4-1.6,0.9-4.1-0.7-5.4c0,0,1.6,1.2-0.2-0.1l-1.9-0.2l0,0l-11.7,4.8l0,0.1
		L307.6,335.2z"/>
	<path id="path4821" class="st3" d="M326.5,359.9l5.4-4.5l-31.8-0.6l0.1,0l0,4.4v0L326.5,359.9z"/>
	<path id="path4909" class="st0" d="M283.9,369.2c-8-5.5-17.7-15.5-17.9-15.6c-0.3,0.2-2.7,5.8-3.4,8.4
		c-2.1,8.6,10.6,15.5,10.6,15.6L283.9,369.2z"/>
	<path id="path4911" class="st4" d="M309.2,327.6c0,0,29.5,16.2,25.9,23.5c-2.7,5.5-18.5,14-26.1,18.7l9.6,10.1
		c8.6-4.8,15.7-10.1,20-14.8c2.1-3.4,2.5-9,0.5-16.8C339.1,344.2,319.5,334.7,309.2,327.6z"/>
	<path id="path4811" class="st5" d="M300,354.7l0.1,4.4l-35.9-0.5l2.1-4.7L300,354.7z"/>
</g>
</svg>
