<?xml version="1.0" encoding="utf-8"?>
<!-- Generator: Adobe Illustrator 21.1.0, SVG Export Plug-In . SVG Version: 6.00 Build 0)  -->
<svg version="1.1" id="Layer_1" xmlns="http://www.w3.org/2000/svg" xmlns:xlink="http://www.w3.org/1999/xlink" x="0px" y="0px"
	 viewBox="0 0 964 1196" style="enable-background:new 0 0 964 1196;" xml:space="preserve">
<style type="text/css">
	.st0{clip-path:url(#SVGID_2_);}
	.st1{fill:#CFCFCF;fill-opacity:0;}
	.st2{fill:none;stroke:#CFCFCF;stroke-width:16;stroke-linejoin:round;stroke-miterlimit:10;}
	.st3{fill:#904EBD;}
	.st4{fill:none;stroke:#904EBD;stroke-width:2;stroke-linejoin:round;stroke-miterlimit:10;}
	.st5{fill:#00BFB6;}
	.st6{fill:none;stroke:#CFCFCF;stroke-width:2;stroke-linejoin:round;stroke-miterlimit:10;}
	.st7{fill:#0058DB;}
	.st8{fill:#E37D00;}
	.st9{fill:#008C33;}
	.st10{fill:#C93434;}
</style>
<g>
	<defs>
		<rect id="SVGID_1_" width="964" height="1196"/>
	</defs>
	<clipPath id="SVGID_2_">
		<use xlink:href="#SVGID_1_"  style="overflow:visible;"/>
	</clipPath>
	<g class="st0">
		<path class="st1" d="M808.7,533.2c-85.5-0.4-400.4,7.2-512.7-2.2s-126.2-18.3-161-54S95.4,343.4,87.4,316.7"/>
		<path class="st2" d="M808.7,533.2c-85.5-0.4-400.4,7.2-512.7-2.2s-126.2-18.3-161-54S95.4,343.4,87.4,316.7"/>
		<path class="st1" d="M97.1,102.6l804.2-1.4"/>
		<path class="st2" d="M97.1,102.6l804.2-1.4"/>
		<path class="st1" d="M103.6,690.2h782.5v91.3H103.6L103.6,690.2z"/>
		<path class="st1" d="M399.1,728h66.6v35.3h-66.6V728z"/>
		<path class="st1" d="M313.1,662.6l344.9,1.2"/>
		<path class="st2" d="M313.1,662.6l344.9,1.2"/>
		<path class="st1" d="M283.9,828.2l518.5-1.4"/>
		<path class="st2" d="M283.9,828.2l518.5-1.4"/>
		<path class="st3" d="M313.2,163.4L313.2,163.4c0-6.5,9.1-11.9,20.4-11.9l0,0c11.3,0,20.4,5.3,20.4,11.9l0,0
			c0,6.5-9.1,11.9-20.4,11.9l0,0C322.3,175.3,313.2,170,313.2,163.4z"/>
		<path class="st4" d="M313.2,163.4L313.2,163.4c0-6.5,9.1-11.9,20.4-11.9l0,0c11.3,0,20.4,5.3,20.4,11.9l0,0
			c0,6.5-9.1,11.9-20.4,11.9l0,0C322.3,175.3,313.2,170,313.2,163.4z"/>
		<path class="st3" d="M353.2,163.4L353.2,163.4c0-6.5,9.1-11.9,20.4-11.9l0,0c11.3,0,20.4,5.3,20.4,11.9l0,0
			c0,6.5-9.1,11.9-20.4,11.9l0,0C362.3,175.3,353.2,170,353.2,163.4z"/>
		<path class="st4" d="M353.2,163.4L353.2,163.4c0-6.5,9.1-11.9,20.4-11.9l0,0c11.3,0,20.4,5.3,20.4,11.9l0,0
			c0,6.5-9.1,11.9-20.4,11.9l0,0C362.3,175.3,353.2,170,353.2,163.4z"/>
		<path class="st3" d="M329.2,179.4L329.2,179.4c0-6.5,9.1-11.9,20.4-11.9l0,0c11.3,0,20.4,5.3,20.4,11.9l0,0
			c0,6.5-9.1,11.9-20.4,11.9l0,0C338.3,191.3,329.2,186,329.2,179.4z"/>
		<path class="st4" d="M329.2,179.4L329.2,179.4c0-6.5,9.1-11.9,20.4-11.9l0,0c11.3,0,20.4,5.3,20.4,11.9l0,0
			c0,6.5-9.1,11.9-20.4,11.9l0,0C338.3,191.3,329.2,186,329.2,179.4z"/>
		<path class="st3" d="M361.2,683.4L361.2,683.4c0-6.5,9.1-11.9,20.4-11.9l0,0c11.3,0,20.4,5.3,20.4,11.9l0,0
			c0,6.5-9.1,11.9-20.4,11.9l0,0C370.3,695.3,361.2,690,361.2,683.4z"/>
		<path class="st4" d="M361.2,683.4L361.2,683.4c0-6.5,9.1-11.9,20.4-11.9l0,0c11.3,0,20.4,5.3,20.4,11.9l0,0
			c0,6.5-9.1,11.9-20.4,11.9l0,0C370.3,695.3,361.2,690,361.2,683.4z"/>
		<path class="st3" d="M401.2,683.4L401.2,683.4c0-6.5,9.1-11.9,20.4-11.9l0,0c11.3,0,20.4,5.3,20.4,11.9l0,0
			c0,6.5-9.1,11.9-20.4,11.9l0,0C410.3,695.3,401.2,690,401.2,683.4z"/>
		<path class="st4" d="M401.2,683.4L401.2,683.4c0-6.5,9.1-11.9,20.4-11.9l0,0c11.3,0,20.4,5.3,20.4,11.9l0,0
			c0,6.5-9.1,11.9-20.4,11.9l0,0C410.3,695.3,401.2,690,401.2,683.4z"/>
		<path class="st3" d="M377.2,699.4L377.2,699.4c0-6.5,9.1-11.9,20.4-11.9l0,0c11.3,0,20.4,5.3,20.4,11.9l0,0
			c0,6.5-9.1,11.9-20.4,11.9l0,0C386.3,711.3,377.2,706,377.2,699.4z"/>
		<path class="st4" d="M377.2,699.4L377.2,699.4c0-6.5,9.1-11.9,20.4-11.9l0,0c11.3,0,20.4,5.3,20.4,11.9l0,0
			c0,6.5-9.1,11.9-20.4,11.9l0,0C386.3,711.3,377.2,706,377.2,699.4z"/>
		<path class="st5" d="M472.2,171.6L472.2,171.6c11,11.3,9.2,30.8-4,43.6c-13.2,12.8-32.7,14.1-43.7,2.9l10.2-9.9l0,0
			c5.5,5.6,16,4.2,23.6-3.1s9.2-17.9,3.7-23.5L472.2,171.6z"/>
		<path class="st6" d="M472.2,171.6L472.2,171.6c11,11.3,9.2,30.8-4,43.6c-13.2,12.8-32.7,14.1-43.7,2.9l10.2-9.9l0,0
			c5.5,5.6,16,4.2,23.6-3.1s9.2-17.9,3.7-23.5L472.2,171.6z"/>
		<path class="st5" d="M488.2,699.6L488.2,699.6c11,11.3,9.2,30.8-4,43.6c-13.2,12.8-32.7,14.1-43.7,2.9l10.2-9.9l0,0
			c5.5,5.6,16,4.2,23.6-3.1s9.2-17.9,3.7-23.5L488.2,699.6z"/>
		<path class="st6" d="M488.2,699.6L488.2,699.6c11,11.3,9.2,30.8-4,43.6c-13.2,12.8-32.7,14.1-43.7,2.9l10.2-9.9l0,0
			c5.5,5.6,16,4.2,23.6-3.1s9.2-17.9,3.7-23.5L488.2,699.6z"/>
		<path class="st5" d="M366.6,728.9L366.6,728.9c-6.6,14.2-25.5,19.5-42.2,11.7c-16.7-7.8-24.8-25.6-18.2-39.8l12.9,6
			c-3.3,7.1,1.7,16.5,11.3,20.9c9.6,4.4,20,2.3,23.3-4.9L366.6,728.9z"/>
		<path class="st6" d="M366.6,728.9L366.6,728.9c-6.6,14.2-25.5,19.5-42.2,11.7c-16.7-7.8-24.8-25.6-18.2-39.8l12.9,6
			c-3.3,7.1,1.7,16.5,11.3,20.9c9.6,4.4,20,2.3,23.3-4.9L366.6,728.9z"/>
		<path class="st1" d="M618.8,460.7h66.6V496h-66.6V460.7z"/>
		<path class="st5" d="M343.1,341.1L343.1,341.1c10.3-11.9,29.9-11.8,43.8,0.2s16.9,31.4,6.7,43.3l-10.8-9.3
			c5.1-6,2.8-16.4-5.2-23.2c-8-6.9-18.6-7.6-23.7-1.7L343.1,341.1z"/>
		<path class="st6" d="M343.1,341.1L343.1,341.1c10.3-11.9,29.9-11.8,43.8,0.2s16.9,31.4,6.7,43.3l-10.8-9.3
			c5.1-6,2.8-16.4-5.2-23.2c-8-6.9-18.6-7.6-23.7-1.7L343.1,341.1z"/>
		<path class="st5" d="M437.3,459.2L437.3,459.2c-7.7,13.7-27,17.4-43,8.4c-16-9-22.7-27.5-15-41.1l12.4,7l0,0
			c-3.9,6.8,0.4,16.6,9.6,21.8c9.2,5.2,19.7,3.8,23.6-3L437.3,459.2z"/>
		<path class="st6" d="M437.3,459.2L437.3,459.2c-7.7,13.7-27,17.4-43,8.4c-16-9-22.7-27.5-15-41.1l12.4,7l0,0
			c-3.9,6.8,0.4,16.6,9.6,21.8c9.2,5.2,19.7,3.8,23.6-3L437.3,459.2z"/>
		<path class="st1" d="M307.9,1100.2l518.5-1.4"/>
		<path class="st2" d="M307.9,1100.2l518.5-1.4"/>
		<path class="st7" d="M776.3,155.9c-10,0.3-21.9,3.3-26,10c-4.1,6.7-2,24.7,1.5,30c3.6,5.3,10.2,1.7,19.9,2
			c9.7,0.3,31.9,5.7,38.3,0c6.4-5.7,5.6-27,0-34S786.2,155.6,776.3,155.9z"/>
		<path class="st6" d="M776.3,155.9c-10,0.3-21.9,3.3-26,10c-4.1,6.7-2,24.7,1.5,30c3.6,5.3,10.2,1.7,19.9,2
			c9.7,0.3,31.9,5.7,38.3,0c6.4-5.7,5.6-27,0-34S786.2,155.6,776.3,155.9z"/>
		<path class="st1" d="M330,663c-24.5-0.1-118.6-0.4-147.3-0.5c-28.7-0.1-15.3-0.5-25,0s-23.4,0.5-33.3,2.7S105.9,670.1,98,676
			s-16.9,12.3-21.2,24.5c-4.3,12.2-4.6,34.3-4.8,48.9c-0.1,14.6-1.7,27.4,4,38.6c5.7,11.2,14.2,22.1,30.5,28.4
			c16.3,6.3,44.8,7.8,67.5,9.6s49.5,0.8,69,1.1s33.2,0.5,48,0.9s34.2,0.8,41,1"/>
		<path class="st2" d="M330,663c-24.5-0.1-118.6-0.4-147.3-0.5c-28.7-0.1-15.3-0.5-25,0s-23.4,0.5-33.3,2.7S105.9,670.1,98,676
			s-16.9,12.3-21.2,24.5c-4.3,12.2-4.6,34.3-4.8,48.9c-0.1,14.6-1.7,27.4,4,38.6c5.7,11.2,14.2,22.1,30.5,28.4
			c16.3,6.3,44.8,7.8,67.5,9.6s49.5,0.8,69,1.1s33.2,0.5,48,0.9s34.2,0.8,41,1"/>
		<path class="st7" d="M680.3,459.9c-10,0.3-21.9,3.3-26,10c-4.1,6.7-2,24.7,1.5,30s10.2,1.7,19.9,2c9.7,0.3,31.9,5.7,38.3,0
			c6.4-5.7,5.6-27,0-34C708.4,460.9,690.2,459.6,680.3,459.9z"/>
		<path class="st6" d="M680.3,459.9c-10,0.3-21.9,3.3-26,10c-4.1,6.7-2,24.7,1.5,30s10.2,1.7,19.9,2c9.7,0.3,31.9,5.7,38.3,0
			c6.4-5.7,5.6-27,0-34C708.4,460.9,690.2,459.6,680.3,459.9z"/>
		<path class="st7" d="M408.3,763.9c-10,0.3-21.9,3.3-26,10s-2,24.7,1.5,30c3.6,5.3,10.2,1.7,19.9,2c9.7,0.3,31.9,5.7,38.3,0
			c6.4-5.7,5.6-27,0-34C436.4,764.9,418.2,763.6,408.3,763.9z"/>
		<path class="st6" d="M408.3,763.9c-10,0.3-21.9,3.3-26,10s-2,24.7,1.5,30c3.6,5.3,10.2,1.7,19.9,2c9.7,0.3,31.9,5.7,38.3,0
			c6.4-5.7,5.6-27,0-34C436.4,764.9,418.2,763.6,408.3,763.9z"/>
		<path class="st1" d="M383.1,1096h66.6v35.3h-66.6V1096z"/>
		<path class="st1" d="M297.1,1030.6l344.9,1.2"/>
		<path class="st2" d="M297.1,1030.6l344.9,1.2"/>
		<path class="st3" d="M345.2,1051.4L345.2,1051.4c0-6.5,9.1-11.9,20.4-11.9l0,0c11.3,0,20.4,5.3,20.4,11.9l0,0
			c0,6.5-9.1,11.9-20.4,11.9l0,0C354.3,1063.3,345.2,1058,345.2,1051.4z"/>
		<path class="st4" d="M345.2,1051.4L345.2,1051.4c0-6.5,9.1-11.9,20.4-11.9l0,0c11.3,0,20.4,5.3,20.4,11.9l0,0
			c0,6.5-9.1,11.9-20.4,11.9l0,0C354.3,1063.3,345.2,1058,345.2,1051.4z"/>
		<path class="st3" d="M385.2,1051.4L385.2,1051.4c0-6.5,9.1-11.9,20.4-11.9l0,0c11.3,0,20.4,5.3,20.4,11.9l0,0
			c0,6.5-9.1,11.9-20.4,11.9l0,0C394.3,1063.3,385.2,1058,385.2,1051.4z"/>
		<path class="st4" d="M385.2,1051.4L385.2,1051.4c0-6.5,9.1-11.9,20.4-11.9l0,0c11.3,0,20.4,5.3,20.4,11.9l0,0
			c0,6.5-9.1,11.9-20.4,11.9l0,0C394.3,1063.3,385.2,1058,385.2,1051.4z"/>
		<path class="st3" d="M361.2,1067.4L361.2,1067.4c0-6.5,9.1-11.9,20.4-11.9l0,0c11.3,0,20.4,5.3,20.4,11.9l0,0
			c0,6.5-9.1,11.9-20.4,11.9l0,0C370.3,1079.3,361.2,1074,361.2,1067.4z"/>
		<path class="st4" d="M361.2,1067.4L361.2,1067.4c0-6.5,9.1-11.9,20.4-11.9l0,0c11.3,0,20.4,5.3,20.4,11.9l0,0
			c0,6.5-9.1,11.9-20.4,11.9l0,0C370.3,1079.3,361.2,1074,361.2,1067.4z"/>
		<path class="st5" d="M417.7,1058.8L417.7,1058.8c0,15.7-14.9,28.4-33.3,28.4c-18.4,0-33.3-12.8-33.3-28.5l14.2,0l0,0
			c0,7.9,8.5,14.2,19.1,14.2s19.1-6.4,19.1-14.2L417.7,1058.8z"/>
		<path class="st6" d="M417.7,1058.8L417.7,1058.8c0,15.7-14.9,28.4-33.3,28.4c-18.4,0-33.3-12.8-33.3-28.5l14.2,0l0,0
			c0,7.9,8.5,14.2,19.1,14.2s19.1-6.4,19.1-14.2L417.7,1058.8z"/>
		<path class="st8" d="M544.6,526.7H632v17.7l-87.4,0V526.7z"/>
		<path class="st1" d="M555.5,526.7v17.7 M621.1,526.7v17.7"/>
		<path class="st1" d="M544.6,526.7H632v17.7l-87.4,0V526.7z"/>
		<path class="st6" d="M555.5,526.7v17.7 M621.1,526.7v17.7"/>
		<path class="st6" d="M544.6,526.7H632v17.7l-87.4,0V526.7z"/>
		<path class="st8" d="M656.6,92.5H744v17.8h-87.4V92.5z"/>
		<path class="st1" d="M667.5,92.5v17.8 M733.1,92.5v17.8"/>
		<path class="st1" d="M656.6,92.5H744v17.8h-87.4V92.5z"/>
		<path class="st6" d="M667.5,92.5v17.8 M733.1,92.5v17.8"/>
		<path class="st6" d="M656.6,92.5H744v17.8h-87.4V92.5z"/>
		<path class="st9" d="M768.6,92.5h97.8v17.8h-97.8V92.5z"/>
		<path class="st1" d="M780.8,92.5v17.8 M854.2,92.5v17.8"/>
		<path class="st1" d="M768.6,92.5h97.8v17.8h-97.8V92.5z"/>
		<path class="st6" d="M780.8,92.5v17.8 M854.2,92.5v17.8"/>
		<path class="st6" d="M768.6,92.5h97.8v17.8h-97.8V92.5z"/>
		<path class="st9" d="M688.6,524.5h97.8v17.8h-97.8V524.5z"/>
		<path class="st1" d="M700.8,524.5v17.8 M774.2,524.5v17.8"/>
		<path class="st1" d="M688.6,524.5h97.8v17.8h-97.8V524.5z"/>
		<path class="st6" d="M700.8,524.5v17.8 M774.2,524.5v17.8"/>
		<path class="st6" d="M688.6,524.5h97.8v17.8h-97.8V524.5z"/>
		<path class="st8" d="M352.6,1092.5H440v17.8h-87.4V1092.5z"/>
		<path class="st1" d="M363.5,1092.5v17.8 M429.1,1092.5v17.8"/>
		<path class="st1" d="M352.6,1092.5H440v17.8h-87.4V1092.5z"/>
		<path class="st6" d="M363.5,1092.5v17.8 M429.1,1092.5v17.8"/>
		<path class="st6" d="M352.6,1092.5H440v17.8h-87.4V1092.5z"/>
		<path class="st9" d="M440.6,817.9h97.8v17.8h-97.8V817.9z"/>
		<path class="st1" d="M452.8,817.9v17.8 M526.2,817.9v17.8"/>
		<path class="st1" d="M440.6,817.9h97.8v17.8h-97.8V817.9z"/>
		<path class="st6" d="M452.8,817.9v17.8 M526.2,817.9v17.8"/>
		<path class="st6" d="M440.6,817.9h97.8v17.8h-97.8V817.9z"/>
		<path class="st8" d="M328.6,820.5H416v17h-87.4V820.5z"/>
		<path class="st1" d="M339.5,820.5v17 M405.1,820.5v17"/>
		<path class="st1" d="M328.6,820.5H416v17h-87.4V820.5z"/>
		<path class="st6" d="M339.5,820.5v17 M405.1,820.5v17"/>
		<path class="st6" d="M328.6,820.5H416v17h-87.4V820.5z"/>
		<path class="st5" d="M417.7,1074.8L417.7,1074.8c0,15.7-14.9,28.5-33.3,28.5s-33.3-12.7-33.3-28.5h14.2c0,7.9,8.5,14.2,19.1,14.2
			s19.1-6.4,19.1-14.2H417.7z"/>
		<path class="st6" d="M417.7,1074.8L417.7,1074.8c0,15.7-14.9,28.5-33.3,28.5s-33.3-12.7-33.3-28.5h14.2c0,7.9,8.5,14.2,19.1,14.2
			s19.1-6.4,19.1-14.2H417.7z"/>
		<path class="st7" d="M435.5,1068.2c-10,0.3-21.9,3.3-26,10c-4.1,6.7-2,24.7,1.5,30c3.6,5.3,10.2,1.7,19.9,2
			c9.7,0.3,31.9,5.7,38.3,0s5.6-27,0-34C463.6,1069.2,445.5,1067.8,435.5,1068.2z"/>
		<path class="st6" d="M435.5,1068.2c-10,0.3-21.9,3.3-26,10c-4.1,6.7-2,24.7,1.5,30c3.6,5.3,10.2,1.7,19.9,2
			c9.7,0.3,31.9,5.7,38.3,0s5.6-27,0-34C463.6,1069.2,445.5,1067.8,435.5,1068.2z"/>
		<path class="st9" d="M488.6,1092.5h97.8v17.8h-97.8V1092.5z"/>
		<path class="st1" d="M500.8,1092.5v17.8 M574.2,1092.5v17.8"/>
		<path class="st1" d="M488.6,1092.5h97.8v17.8h-97.8V1092.5z"/>
		<path class="st6" d="M500.8,1092.5v17.8 M574.2,1092.5v17.8"/>
		<path class="st6" d="M488.6,1092.5h97.8v17.8h-97.8V1092.5z"/>
		<path class="st10" d="M192.6,92.5h31.8v17.8h-31.8V92.5z"/>
		<path class="st1" d="M196.6,92.5v17.8 M220.5,92.5v17.8"/>
		<path class="st1" d="M192.6,92.5h31.8v17.8h-31.8V92.5z"/>
		<path class="st6" d="M196.6,92.5v17.8 M220.5,92.5v17.8"/>
		<path class="st6" d="M192.6,92.5h31.8v17.8h-31.8V92.5z"/>
		<path class="st10" d="M144.6,92.5h31.8v17.8h-31.8V92.5z"/>
		<path class="st1" d="M148.6,92.5v17.8 M172.5,92.5v17.8"/>
		<path class="st1" d="M144.6,92.5h31.8v17.8h-31.8V92.5z"/>
		<path class="st6" d="M148.6,92.5v17.8 M172.5,92.5v17.8"/>
		<path class="st6" d="M144.6,92.5h31.8v17.8h-31.8V92.5z"/>
		<path class="st10" d="M103.6,437.8l-6.7-31.1l17.2-3.7l6.7,31.1L103.6,437.8z"/>
		<path class="st1" d="M102.8,433.9l17.2-3.7 M97.8,410.6l17.2-3.7"/>
		<path class="st1" d="M103.6,437.8l-6.7-31.1l17.2-3.7l6.7,31.1L103.6,437.8z"/>
		<path class="st6" d="M102.8,433.9l17.2-3.7 M97.8,410.6l17.2-3.7"/>
		<path class="st6" d="M103.6,437.8l-6.7-31.1l17.2-3.7l6.7,31.1L103.6,437.8z"/>
		<path class="st3" d="M141.7,411.7L141.7,411.7c-6.4,1.4-13.5-6.4-15.9-17.4l0,0c-2.4-11,0.9-21,7.3-22.4l0,0
			c6.4-1.4,13.5,6.4,15.9,17.4l0,0C151.3,400.3,148.1,410.3,141.7,411.7z"/>
		<path class="st4" d="M141.7,411.7L141.7,411.7c-6.4,1.4-13.5-6.4-15.9-17.4l0,0c-2.4-11,0.9-21,7.3-22.4l0,0
			c6.4-1.4,13.5,6.4,15.9,17.4l0,0C151.3,400.3,148.1,410.3,141.7,411.7z"/>
		<path class="st10" d="M90.8,382.7l-6-31.3l17.5-3.4l6,31.3L90.8,382.7z"/>
		<path class="st1" d="M90.1,378.8l17.5-3.4 M85.5,355.3l17.5-3.4"/>
		<path class="st1" d="M90.8,382.7l-6-31.3l17.5-3.4l6,31.3L90.8,382.7z"/>
		<path class="st6" d="M90.1,378.8l17.5-3.4 M85.5,355.3l17.5-3.4"/>
		<path class="st6" d="M90.8,382.7l-6-31.3l17.5-3.4l6,31.3L90.8,382.7z"/>
		<path class="st3" d="M129.4,430.8L129.4,430.8c-6.4,1.4-13.5-6.4-15.9-17.4l0,0c-2.4-11,0.9-21,7.3-22.4l0,0
			c6.4-1.4,13.5,6.4,15.9,17.4l0,0C139.1,419.3,135.8,429.4,129.4,430.8z"/>
		<path class="st4" d="M129.4,430.8L129.4,430.8c-6.4,1.4-13.5-6.4-15.9-17.4l0,0c-2.4-11,0.9-21,7.3-22.4l0,0
			c6.4-1.4,13.5,6.4,15.9,17.4l0,0C139.1,419.3,135.8,429.4,129.4,430.8z"/>
		<path class="st3" d="M120.9,391.7L120.9,391.7c-6.4,1.4-13.5-6.4-15.9-17.4l0,0c-2.4-11,0.9-21,7.3-22.4l0,0
			c6.4-1.4,13.5,6.4,15.9,17.4l0,0C130.6,380.2,127.3,390.3,120.9,391.7z"/>
		<path class="st4" d="M120.9,391.7L120.9,391.7c-6.4,1.4-13.5-6.4-15.9-17.4l0,0c-2.4-11,0.9-21,7.3-22.4l0,0
			c6.4-1.4,13.5,6.4,15.9,17.4l0,0C130.6,380.2,127.3,390.3,120.9,391.7z"/>
		<path class="st10" d="M360.6,652.5h31.8v17.8h-31.8V652.5z"/>
		<path class="st1" d="M364.6,652.5v17.8 M388.5,652.5v17.8"/>
		<path class="st1" d="M360.6,652.5h31.8v17.8h-31.8V652.5z"/>
		<path class="st6" d="M364.6,652.5v17.8 M388.5,652.5v17.8"/>
		<path class="st6" d="M360.6,652.5h31.8v17.8h-31.8V652.5z"/>
		<path class="st10" d="M408.6,652.5h31.8v17.8h-31.8V652.5z"/>
		<path class="st1" d="M412.6,652.5v17.8 M436.5,652.5v17.8"/>
		<path class="st1" d="M408.6,652.5h31.8v17.8h-31.8V652.5z"/>
		<path class="st6" d="M412.6,652.5v17.8 M436.5,652.5v17.8"/>
		<path class="st6" d="M408.6,652.5h31.8v17.8h-31.8V652.5z"/>
		<path class="st10" d="M392.6,1020.5h31.8v17.8h-31.8V1020.5z"/>
		<path class="st1" d="M396.6,1020.5v17.8 M420.5,1020.5v17.8"/>
		<path class="st1" d="M392.6,1020.5h31.8v17.8h-31.8V1020.5z"/>
		<path class="st6" d="M396.6,1020.5v17.8 M420.5,1020.5v17.8"/>
		<path class="st6" d="M392.6,1020.5h31.8v17.8h-31.8V1020.5z"/>
		<path class="st10" d="M344.6,1020.5h31.8v17.8h-31.8V1020.5z"/>
		<path class="st1" d="M348.6,1020.5v17.8 M372.5,1020.5v17.8"/>
		<path class="st1" d="M344.6,1020.5h31.8v17.8h-31.8V1020.5z"/>
		<path class="st6" d="M348.6,1020.5v17.8 M372.5,1020.5v17.8"/>
		<path class="st6" d="M344.6,1020.5h31.8v17.8h-31.8V1020.5z"/>
		<path class="st1" d="M346,1100c-4,0-15.8,0-24,0s-14.8-0.2-25,0c-10.2,0.2-18.5,0.7-36,1c-17.5,0.3-43.5,1-69,1s-63,3.8-84-1
			c-21-4.8-32.5-16.7-42-28c-9.5-11.3-14.2-24.7-15-40c-0.8-15.3,3.3-39.2,10-52c6.7-12.8,20.2-21.2,30-25c9.8-3.8,21.5,0.5,29,2
			s11,4.2,16,7c5,2.8,7.5,4.7,14,10c6.5,5.3,16.3,15.2,25,22c8.7,6.8,15.8,14,27,19s24.5,8.5,40,11s38,3.3,53,4c15,0.7,30.8,0,37,0"
			/>
		<path class="st2" d="M346,1100c-4,0-15.8,0-24,0s-14.8-0.2-25,0c-10.2,0.2-18.5,0.7-36,1c-17.5,0.3-43.5,1-69,1s-63,3.8-84-1
			c-21-4.8-32.5-16.7-42-28c-9.5-11.3-14.2-24.7-15-40c-0.8-15.3,3.3-39.2,10-52c6.7-12.8,20.2-21.2,30-25c9.8-3.8,21.5,0.5,29,2
			s11,4.2,16,7c5,2.8,7.5,4.7,14,10c6.5,5.3,16.3,15.2,25,22c8.7,6.8,15.8,14,27,19s24.5,8.5,40,11s38,3.3,53,4c15,0.7,30.8,0,37,0"
			/>
	</g>
</g>
</svg>
