<?xml version="1.0" encoding="utf-8"?>
<!-- Generator: Adobe Illustrator 21.1.0, SVG Export Plug-In . SVG Version: 6.00 Build 0)  -->
<svg version="1.1" id="Layer_1" xmlns="http://www.w3.org/2000/svg" xmlns:xlink="http://www.w3.org/1999/xlink" x="0px" y="0px"
	 viewBox="0 0 1300 700" style="enable-background:new 0 0 1300 700;" xml:space="preserve">
<style type="text/css">
	.st0{fill:#634B00;stroke:#3F3000;stroke-width:5;stroke-miterlimit:10;}
	.st1{fill:#006837;stroke:#004723;stroke-width:5;stroke-miterlimit:10;}
	.st2{fill:#B3B3B3;stroke:#B3B3B3;stroke-width:17;stroke-miterlimit:10;}
	.st3{fill:#B3B3B3;}
	.st4{fill:none;stroke:#B3B3B3;stroke-width:17;stroke-miterlimit:10;}
	.st5{fill:none;stroke:#B3B3B3;stroke-width:17;stroke-miterlimit:10;stroke-dasharray:11.303,11.303;}
	.st6{fill:none;stroke:#B3B3B3;stroke-width:17;stroke-miterlimit:10;stroke-dasharray:10.7223,10.7223;}
	.st7{fill:none;stroke:#C1272D;stroke-width:17;stroke-miterlimit:10;}
	.st8{fill:none;stroke:#0071BC;stroke-width:17;stroke-miterlimit:10;}
	.st9{fill:none;stroke:#662D91;stroke-width:17;stroke-miterlimit:10;}
	.st10{fill:none;stroke:#D9E021;stroke-width:17;stroke-miterlimit:10;}
</style>
<g>
	<rect x="223.4" y="292.8" class="st0" width="42.4" height="116.8"/>
	<polygon class="st1" points="169.2,151.8 247,35.2 320.7,151.8 281,143 333.9,261.2 302.1,253.5 352.7,370.9 136.5,370.9 
		190.3,253.5 153.6,261.2 211.5,143 	"/>
</g>
<g>
	<rect x="331.5" y="292.8" class="st0" width="42.4" height="116.8"/>
	<polygon class="st1" points="277.3,151.8 355.1,35.2 428.8,151.8 389.1,143 442,261.2 410.2,253.5 460.8,370.9 244.6,370.9 
		298.5,253.5 261.7,261.2 319.6,143 	"/>
</g>
<g>
	<rect x="454.5" y="324.5" class="st0" width="42.4" height="116.8"/>
	<polygon class="st1" points="400.3,183.5 478.1,66.8 551.8,183.5 512.1,174.6 565,292.8 533.2,285.1 583.8,402.5 367.5,402.5 
		421.4,285.1 384.7,292.8 442.6,174.6 	"/>
</g>
<g>
	<rect x="380.6" y="377.7" class="st0" width="42.4" height="116.8"/>
	<polygon class="st1" points="326.4,236.7 404.2,120 477.9,236.7 438.2,227.8 491.1,346 459.3,338.4 509.9,455.7 293.7,455.7 
		347.5,338.4 310.8,346 368.7,227.8 	"/>
</g>
<g>
	<rect x="281.2" y="441.3" class="st0" width="42.4" height="116.8"/>
	<polygon class="st1" points="227,300.3 304.8,183.6 378.5,300.3 338.8,291.4 391.7,409.6 359.9,402 410.5,519.3 194.3,519.3 
		248.1,402 211.4,409.6 269.3,291.4 	"/>
</g>
<g>
	<rect x="182.3" y="460.7" class="st0" width="42.4" height="116.8"/>
	<polygon class="st1" points="128.1,319.7 205.9,203 279.6,319.7 239.9,310.8 292.8,429 261,421.3 311.6,538.7 95.4,538.7 
		149.3,421.3 112.5,429 170.4,310.8 	"/>
</g>
<g>
	<rect x="469.3" y="474.2" class="st0" width="42.4" height="116.8"/>
	<polygon class="st1" points="415.1,333.2 492.9,216.6 566.6,333.2 526.9,324.4 579.8,442.6 548,434.9 598.6,552.3 382.3,552.3 
		436.2,434.9 399.4,442.6 457.4,324.4 	"/>
</g>
<g>
	<rect x="900.1" y="430.3" class="st0" width="22.9" height="63.2"/>
	<polygon class="st1" points="870.8,354.1 912.9,290.9 952.7,354.1 931.3,349.3 959.9,413.2 942.7,409 970.1,472.5 853.1,472.5 
		882.2,409 862.4,413.2 893.7,349.3 	"/>
</g>
<g>
	<rect x="958.6" y="430.3" class="st0" width="22.9" height="63.2"/>
	<polygon class="st1" points="929.3,354.1 971.4,290.9 1011.2,354.1 989.7,349.3 1018.4,413.2 1001.2,409 1028.5,472.5 911.6,472.5 
		940.7,409 920.8,413.2 952.2,349.3 	"/>
</g>
<g>
	<rect x="1025.1" y="447.4" class="st0" width="22.9" height="63.2"/>
	<polygon class="st1" points="995.8,371.2 1037.9,308 1077.7,371.2 1056.3,366.4 1084.9,430.3 1067.7,426.1 1095,489.6 978.1,489.6 
		1007.2,426.1 987.3,430.3 1018.7,366.4 	"/>
</g>
<g>
	<rect x="985.1" y="476.2" class="st0" width="22.9" height="63.2"/>
	<polygon class="st1" points="955.8,399.9 997.9,336.8 1037.8,399.9 1016.3,395.1 1044.9,459.1 1027.7,454.9 1055.1,518.4 
		938.1,518.4 967.3,454.9 947.4,459.1 978.7,395.1 	"/>
</g>
<g>
	<rect x="931.4" y="510.6" class="st0" width="22.9" height="63.2"/>
	<polygon class="st1" points="902.1,434.3 944.1,371.2 984,434.3 962.5,429.5 991.2,493.5 974,489.3 1001.3,552.8 884.4,552.8 
		913.5,489.3 893.6,493.5 925,429.5 	"/>
</g>
<g>
	<rect x="877.9" y="521.1" class="st0" width="22.9" height="63.2"/>
	<polygon class="st1" points="848.6,444.8 890.7,381.7 930.5,444.8 909,440 937.7,504 920.5,499.8 947.8,563.3 830.9,563.3 
		860,499.8 840.1,504 871.5,440 	"/>
</g>
<g>
	<rect x="1033.1" y="528.4" class="st0" width="22.9" height="63.2"/>
	<polygon class="st1" points="1003.8,452.2 1045.9,389.1 1085.7,452.2 1064.3,447.4 1092.9,511.3 1075.7,507.2 1103,570.6 
		986.1,570.6 1015.2,507.2 995.3,511.3 1026.7,447.4 	"/>
</g>
<g>
	<g>
		<line class="st2" x1="136.9" y1="660.9" x2="518.9" y2="660.9"/>
		<g>
			<line class="st3" x1="518.9" y1="660.9" x2="608" y2="660.9"/>
			<g>
				<line class="st4" x1="518.9" y1="660.9" x2="523.9" y2="660.9"/>
				<line class="st5" x1="535.2" y1="660.9" x2="597.4" y2="660.9"/>
				<line class="st4" x1="603" y1="660.9" x2="608" y2="660.9"/>
			</g>
		</g>
		<g>
			<line class="st3" x1="51.9" y1="660.9" x2="136.9" y2="660.9"/>
			<g>
				<line class="st4" x1="51.9" y1="660.9" x2="56.9" y2="660.9"/>
				<line class="st6" x1="67.6" y1="660.9" x2="126.5" y2="660.9"/>
				<line class="st4" x1="131.9" y1="660.9" x2="136.9" y2="660.9"/>
			</g>
		</g>
	</g>
	<line class="st7" x1="194.3" y1="660.9" x2="203.5" y2="660.9"/>
	<line class="st8" x1="284.4" y1="660.9" x2="293.7" y2="660.9"/>
	<line class="st9" x1="326.9" y1="660.9" x2="336.1" y2="660.9"/>
	<line class="st10" x1="464.7" y1="660.9" x2="473.9" y2="660.9"/>
</g>
<g>
	<g>
		<line class="st2" x1="777" y1="660.9" x2="1159" y2="660.9"/>
		<g>
			<line class="st3" x1="1159" y1="660.9" x2="1248.1" y2="660.9"/>
			<g>
				<line class="st4" x1="1159" y1="660.9" x2="1164" y2="660.9"/>
				<line class="st5" x1="1175.3" y1="660.9" x2="1237.5" y2="660.9"/>
				<line class="st4" x1="1243.1" y1="660.9" x2="1248.1" y2="660.9"/>
			</g>
		</g>
		<g>
			<line class="st3" x1="692" y1="660.9" x2="777" y2="660.9"/>
			<g>
				<line class="st4" x1="692" y1="660.9" x2="697" y2="660.9"/>
				<line class="st6" x1="707.7" y1="660.9" x2="766.7" y2="660.9"/>
				<line class="st4" x1="772" y1="660.9" x2="777" y2="660.9"/>
			</g>
		</g>
	</g>
	<line class="st8" x1="924.5" y1="660.9" x2="933.8" y2="660.9"/>
	<line class="st10" x1="1104.8" y1="660.9" x2="1114" y2="660.9"/>
</g>
</svg>
