<?xml version="1.0" encoding="utf-8"?>
<!-- Generator: Adobe Illustrator 21.1.0, SVG Export Plug-In . SVG Version: 6.00 Build 0)  -->
<svg version="1.1" xmlns="http://www.w3.org/2000/svg" xmlns:xlink="http://www.w3.org/1999/xlink" x="0px" y="0px"
	 viewBox="0 0 960.1 175.1" style="enable-background:new 0 0 960.1 175.1;" xml:space="preserve">
<style type="text/css">
	.st0{display:none;}
	.st1{display:inline;fill:#606060;}
	.st2{fill:none;stroke:#B3B3B3;stroke-width:17;stroke-miterlimit:10;}
	.st3{fill:none;}
	.st4{fill:none;stroke:#B3B3B3;stroke-width:17;stroke-miterlimit:10;stroke-dasharray:11.303,11.303;}
	.st5{fill:none;stroke:#B3B3B3;stroke-width:17;stroke-miterlimit:10;stroke-dasharray:10.7223,10.7223;}
	.st6{fill:none;stroke:#FBB03B;stroke-width:17;stroke-miterlimit:10;}
	.st7{fill:none;stroke:#ED1C24;stroke-width:17;stroke-miterlimit:10;}
	.st8{fill:none;stroke:#FFFFFF;stroke-width:2;stroke-miterlimit:10;}
	.st9{fill:#FFFFFF;}
	.st10{font-family:'MyriadPro-Regular';}
	.st11{font-size:13.1018px;}
</style>
<g id="Layer_2" class="st0">
	<rect class="st1" width="960.1" height="175.1"/>
</g>
<g id="Layer_1">
	<g>
		<g>
			<line class="st2" x1="85" y1="8.5" x2="871" y2="8.5"/>
			<g>
				<line class="st3" x1="871" y1="8.5" x2="960.1" y2="8.5"/>
				<g>
					<line class="st2" x1="871" y1="8.5" x2="876" y2="8.5"/>
					<line class="st4" x1="887.3" y1="8.5" x2="949.5" y2="8.5"/>
					<line class="st2" x1="955.1" y1="8.5" x2="960.1" y2="8.5"/>
				</g>
			</g>
			<g>
				<line class="st3" x1="0" y1="8.5" x2="85" y2="8.5"/>
				<g>
					<line class="st2" x1="0" y1="8.5" x2="5" y2="8.5"/>
					<line class="st5" x1="15.7" y1="8.5" x2="74.7" y2="8.5"/>
					<line class="st2" x1="80" y1="8.5" x2="85" y2="8.5"/>
				</g>
			</g>
		</g>
	</g>
	<g>
		<g>
			<g>
				<line class="st6" x1="225.5" y1="8.5" x2="242.5" y2="8.5"/>
				<line class="st7" x1="242" y1="8.5" x2="259" y2="8.5"/>
			</g>
		</g>
		<g>
			<g>
				<line class="st6" x1="259" y1="8.5" x2="276" y2="8.5"/>
				<line class="st7" x1="275.5" y1="8.5" x2="292.5" y2="8.5"/>
			</g>
		</g>
		<g>
			<g>
				<line class="st6" x1="292.5" y1="8.5" x2="309.5" y2="8.5"/>
				<line class="st7" x1="309" y1="8.5" x2="326" y2="8.5"/>
			</g>
		</g>
		<g>
			<g>
				<line class="st6" x1="326" y1="8.5" x2="343" y2="8.5"/>
				<line class="st7" x1="342.5" y1="8.5" x2="359.5" y2="8.5"/>
			</g>
		</g>
		<g>
			<g>
				<line class="st6" x1="359.5" y1="8.5" x2="376.5" y2="8.5"/>
				<line class="st7" x1="376" y1="8.5" x2="393" y2="8.5"/>
			</g>
		</g>
		<g>
			<g>
				<line class="st6" x1="393" y1="8.5" x2="410" y2="8.5"/>
				<line class="st7" x1="409.5" y1="8.5" x2="426.5" y2="8.5"/>
			</g>
		</g>
		<g>
			<g>
				<line class="st6" x1="426.5" y1="8.5" x2="443.5" y2="8.5"/>
				<line class="st7" x1="443" y1="8.5" x2="460" y2="8.5"/>
			</g>
		</g>
		<g>
			<g>
				<line class="st6" x1="460" y1="8.5" x2="477" y2="8.5"/>
				<line class="st7" x1="476.5" y1="8.5" x2="493.5" y2="8.5"/>
			</g>
		</g>
		<g>
			<g>
				<line class="st6" x1="493.5" y1="8.5" x2="510.5" y2="8.5"/>
				<line class="st7" x1="510" y1="8.5" x2="527" y2="8.5"/>
			</g>
		</g>
		<g>
			<g>
				<line class="st6" x1="527" y1="8.5" x2="544" y2="8.5"/>
				<line class="st7" x1="543.5" y1="8.5" x2="560.5" y2="8.5"/>
			</g>
		</g>
		<g>
			<g>
				<line class="st6" x1="560.5" y1="8.5" x2="577.5" y2="8.5"/>
				<line class="st7" x1="577" y1="8.5" x2="594" y2="8.5"/>
			</g>
		</g>
		<g>
			<g>
				<line class="st6" x1="594" y1="8.5" x2="611" y2="8.5"/>
				<line class="st7" x1="610.5" y1="8.5" x2="627.5" y2="8.5"/>
			</g>
		</g>
		<g>
			<g>
				<line class="st6" x1="627.5" y1="8.5" x2="644.5" y2="8.5"/>
				<line class="st7" x1="644" y1="8.5" x2="661" y2="8.5"/>
			</g>
		</g>
		<g>
			<g>
				<line class="st6" x1="661" y1="8.5" x2="678" y2="8.5"/>
				<line class="st7" x1="677.5" y1="8.5" x2="694.5" y2="8.5"/>
			</g>
		</g>
		<g>
			<g>
				<line class="st6" x1="694.5" y1="8.5" x2="711.5" y2="8.5"/>
				<line class="st7" x1="711" y1="8.5" x2="728" y2="8.5"/>
			</g>
		</g>
	</g>
	<g>
		<line class="st2" x1="134.5" y1="47.7" x2="258.5" y2="47.7"/>
		<g>
			<g>
				<line class="st6" x1="225" y1="47.7" x2="242" y2="47.7"/>
				<line class="st7" x1="241.5" y1="47.7" x2="258.5" y2="47.7"/>
			</g>
		</g>
	</g>
	<g>
		<line class="st2" x1="818.6" y1="47.8" x2="694.5" y2="47.8"/>
		<g>
			<g>
				<line class="st6" x1="694.5" y1="47.7" x2="711.5" y2="47.7"/>
				<line class="st7" x1="711" y1="47.7" x2="728" y2="47.7"/>
			</g>
		</g>
	</g>
	<g>
		<g>
			<g>
				<line class="st6" x1="225" y1="67.6" x2="242" y2="67.6"/>
				<line class="st7" x1="241.5" y1="67.6" x2="258.5" y2="67.6"/>
			</g>
		</g>
		<g>
			<g>
				<line class="st6" x1="258.5" y1="67.6" x2="275.5" y2="67.6"/>
				<line class="st7" x1="275" y1="67.6" x2="292" y2="67.6"/>
			</g>
		</g>
		<g>
			<g>
				<line class="st6" x1="292" y1="67.6" x2="309" y2="67.6"/>
				<line class="st7" x1="308.5" y1="67.6" x2="325.5" y2="67.6"/>
			</g>
		</g>
	</g>
	<g>
		<g>
			<g>
				<line class="st6" x1="258.5" y1="88.1" x2="275.5" y2="88.1"/>
				<line class="st7" x1="275" y1="88.1" x2="292" y2="88.1"/>
			</g>
		</g>
		<g>
			<g>
				<line class="st6" x1="292" y1="88.1" x2="309" y2="88.1"/>
				<line class="st7" x1="308.5" y1="88.1" x2="325.5" y2="88.1"/>
			</g>
		</g>
		<g>
			<g>
				<line class="st6" x1="325.5" y1="88.1" x2="342.5" y2="88.1"/>
				<line class="st7" x1="342" y1="88.1" x2="359" y2="88.1"/>
			</g>
		</g>
	</g>
	<g>
		<g>
			<g>
				<line class="st6" x1="292.3" y1="108.7" x2="309.3" y2="108.7"/>
				<line class="st7" x1="308.8" y1="108.7" x2="325.8" y2="108.7"/>
			</g>
		</g>
		<g>
			<g>
				<line class="st6" x1="325.8" y1="108.7" x2="342.8" y2="108.7"/>
				<line class="st7" x1="342.3" y1="108.7" x2="359.3" y2="108.7"/>
			</g>
		</g>
		<g>
			<g>
				<line class="st6" x1="359.3" y1="108.7" x2="376.3" y2="108.7"/>
				<line class="st7" x1="375.8" y1="108.7" x2="392.8" y2="108.7"/>
			</g>
		</g>
	</g>
	<g>
		<g>
			<g>
				<line class="st6" x1="326" y1="129.3" x2="343" y2="129.3"/>
				<line class="st7" x1="342.5" y1="129.3" x2="359.5" y2="129.3"/>
			</g>
		</g>
		<g>
			<g>
				<line class="st6" x1="359.5" y1="129.3" x2="376.5" y2="129.3"/>
				<line class="st7" x1="376" y1="129.3" x2="393" y2="129.3"/>
			</g>
		</g>
		<g>
			<g>
				<line class="st6" x1="393" y1="129.3" x2="410" y2="129.3"/>
				<line class="st7" x1="409.5" y1="129.3" x2="426.5" y2="129.3"/>
			</g>
		</g>
	</g>
	<g>
		<g>
			<line class="st2" x1="143.5" y1="166.6" x2="267.5" y2="166.6"/>
			<g>
				<g>
					<line class="st6" x1="234" y1="166.6" x2="251" y2="166.6"/>
					<line class="st7" x1="250.5" y1="166.6" x2="267.5" y2="166.6"/>
				</g>
			</g>
		</g>
		<g>
			<line class="st2" x1="703" y1="166.6" x2="827.1" y2="166.6"/>
		</g>
		<g>
			<g>
				<g>
					<line class="st6" x1="225.3" y1="166.6" x2="242.3" y2="166.6"/>
					<line class="st7" x1="241.8" y1="166.6" x2="258.8" y2="166.6"/>
				</g>
			</g>
			<g>
				<g>
					<line class="st6" x1="258.8" y1="166.6" x2="275.8" y2="166.6"/>
					<line class="st7" x1="275.3" y1="166.6" x2="292.3" y2="166.6"/>
				</g>
			</g>
			<g>
				<g>
					<line class="st6" x1="292.3" y1="166.6" x2="309.3" y2="166.6"/>
					<line class="st7" x1="308.8" y1="166.6" x2="325.8" y2="166.6"/>
				</g>
			</g>
			<g>
				<g>
					<line class="st6" x1="325.8" y1="166.6" x2="342.8" y2="166.6"/>
					<line class="st7" x1="342.3" y1="166.6" x2="359.3" y2="166.6"/>
				</g>
			</g>
			<g>
				<g>
					<line class="st6" x1="359.3" y1="166.6" x2="376.3" y2="166.6"/>
					<line class="st7" x1="375.8" y1="166.6" x2="392.8" y2="166.6"/>
				</g>
			</g>
			<g>
				<g>
					<line class="st6" x1="392.8" y1="166.6" x2="409.8" y2="166.6"/>
					<line class="st7" x1="409.3" y1="166.6" x2="426.3" y2="166.6"/>
				</g>
			</g>
			<g>
				<g>
					<line class="st6" x1="426.3" y1="166.6" x2="443.3" y2="166.6"/>
					<line class="st7" x1="442.8" y1="166.6" x2="459.8" y2="166.6"/>
				</g>
			</g>
			<g>
				<g>
					<line class="st6" x1="459.8" y1="166.6" x2="476.8" y2="166.6"/>
					<line class="st7" x1="476.3" y1="166.6" x2="493.3" y2="166.6"/>
				</g>
			</g>
			<g>
				<g>
					<line class="st6" x1="493.3" y1="166.6" x2="510.3" y2="166.6"/>
					<line class="st7" x1="509.8" y1="166.6" x2="526.8" y2="166.6"/>
				</g>
			</g>
			<g>
				<g>
					<line class="st6" x1="526.8" y1="166.6" x2="543.8" y2="166.6"/>
					<line class="st7" x1="543.3" y1="166.6" x2="560.3" y2="166.6"/>
				</g>
			</g>
			<g>
				<g>
					<line class="st6" x1="560.3" y1="166.6" x2="577.3" y2="166.6"/>
					<line class="st7" x1="576.8" y1="166.6" x2="593.8" y2="166.6"/>
				</g>
			</g>
			<g>
				<g>
					<line class="st6" x1="593.8" y1="166.6" x2="610.8" y2="166.6"/>
					<line class="st7" x1="610.3" y1="166.6" x2="627.3" y2="166.6"/>
				</g>
			</g>
			<g>
				<g>
					<line class="st6" x1="627.3" y1="166.6" x2="644.3" y2="166.6"/>
					<line class="st7" x1="643.8" y1="166.6" x2="660.8" y2="166.6"/>
				</g>
			</g>
			<g>
				<g>
					<line class="st6" x1="660.8" y1="166.6" x2="677.8" y2="166.6"/>
					<line class="st7" x1="677.3" y1="166.6" x2="694.3" y2="166.6"/>
				</g>
			</g>
			<g>
				<g>
					<line class="st6" x1="694.3" y1="166.6" x2="711.3" y2="166.6"/>
					<line class="st7" x1="710.8" y1="166.6" x2="727.8" y2="166.6"/>
				</g>
			</g>
		</g>
	</g>
	<g>
		<g>
			<line class="st8" x1="140.1" y1="100.7" x2="241.1" y2="90.6"/>
			<g>
				<polygon class="st9" points="236.2,98.5 238.6,90.8 234.7,83.8 252.9,89.4 				"/>
			</g>
		</g>
	</g>
	<text transform="matrix(1 0 0 1 22.501 100.6399)"><tspan x="0" y="0" class="st9 st10 st11">Hur vet vi var dessa</tspan><tspan x="0" y="15.7" class="st9 st10 st11">reads kommer ifrån?</tspan></text>
</g>
</svg>
